# xmcd CD database file
#
# Track frame offsets:
#	150
#	16874
#	39828
#	60096
#	77087
#	100352
#	121922
#	138908
#	158883
#	178700
#	209582
#	234165
#
# Disc length: 3399 seconds
#
# Revision: 0
# Processed by: cddbd v1.5.2PL0 Copyright (c) Steve Scherf et al.
# Submitted via: CDex 1.70beta2
#
DISCID=8c0d450c
DTITLE=Nikka Costa - Pebble to a Pearl
DYEAR=2008
DGENRE=Blues
TTITLE0=Stuck To You
TTITLE1=Can't Please Everybody
TTITLE2=Pebble to a Pearl
TTITLE3=Someone for Everyone
TTITLE4=Cry Baby
TTITLE5=Keep Wanting More
TTITLE6=Keep Pushin
TTITLE7=Love to Love You Less
TTITLE8=Without Love
TTITLE9=Damn I Said It First
TTITLE10=Loving You
TTITLE11=Bullets in the Sky
EXTD=YEAR: 2008
EXTT0=
EXTT1=
EXTT2=
EXTT3=
EXTT4=
EXTT5=
EXTT6=
EXTT7=
EXTT8=
EXTT9=
EXTT10=
EXTT11=
PLAYORDER=
